<?xml version="1.0" encoding="UTF-8" standalone="no"?>
<!-- Created with Inkscape (http://www.inkscape.org/) -->

<svg
   xmlns:dc="http://purl.org/dc/elements/1.1/"
   xmlns:cc="http://creativecommons.org/ns#"
   xmlns:rdf="http://www.w3.org/1999/02/22-rdf-syntax-ns#"
   xmlns:svg="http://www.w3.org/2000/svg"
   xmlns="http://www.w3.org/2000/svg"
   xmlns:xlink="http://www.w3.org/1999/xlink"
   xmlns:sodipodi="http://sodipodi.sourceforge.net/DTD/sodipodi-0.dtd"
   xmlns:inkscape="http://www.inkscape.org/namespaces/inkscape"
   width="534"
   height="516"
   id="svg2"
   version="1.1"
   inkscape:version="0.48.2 r9819"
   sodipodi:docname="mapa.svg"
   inkscape:export-filename="/home/bcorrales/django/aguasan/aguasan/media/imagen/mapa.png"
   inkscape:export-xdpi="90"
   inkscape:export-ydpi="90">
  <defs
     id="defs4">
    <linearGradient
       inkscape:collect="always"
       id="linearGradient4005">
      <stop
         style="stop-color:#ffffff;stop-opacity:1"
         offset="0"
         id="stop4007" />
      <stop
         style="stop-color:#eeeeee;stop-opacity:1"
         offset="1"
         id="stop4009" />
    </linearGradient>
    <inkscape:perspective
       sodipodi:type="inkscape:persp3d"
       inkscape:vp_x="0 : 526.18109 : 1"
       inkscape:vp_y="0 : 1000 : 0"
       inkscape:vp_z="744.09448 : 526.18109 : 1"
       inkscape:persp3d-origin="372.04724 : 350.78739 : 1"
       id="perspective10" />
    <clipPath
       id="clipPath3917"
       clipPathUnits="userSpaceOnUse">
      <path
         transform="matrix(0.0010101,0,0,0.00138889,-3.3957196,-1.453732)"
         d="m 3741.605,613.95599 a 177.78685,179.80716 0 1 1 -355.5737,0 177.78685,179.80716 0 1 1 355.5737,0 z"
         sodipodi:ry="179.80716"
         sodipodi:rx="177.78685"
         sodipodi:cy="613.95599"
         sodipodi:cx="3563.8181"
         id="path3919"
         style="fill:#c4c4c4;fill-opacity:1;fill-rule:evenodd;stroke:none"
         sodipodi:type="arc" />
    </clipPath>
    <inkscape:perspective
       sodipodi:type="inkscape:persp3d"
       inkscape:vp_x="0 : 0.5 : 1"
       inkscape:vp_y="0 : 1000 : 0"
       inkscape:vp_z="1 : 0.5 : 1"
       inkscape:persp3d-origin="0.5 : 0.33333333 : 1"
       id="perspective3900" />
    <inkscape:perspective
       sodipodi:type="inkscape:persp3d"
       inkscape:vp_x="0 : 0.5 : 1"
       inkscape:vp_y="0 : 1000 : 0"
       inkscape:vp_z="1 : 0.5 : 1"
       inkscape:persp3d-origin="0.5 : 0.33333333 : 1"
       id="perspective2899" />
    <inkscape:perspective
       id="perspective10-8"
       inkscape:persp3d-origin="372.04724 : 350.78739 : 1"
       inkscape:vp_z="744.09448 : 526.18109 : 1"
       inkscape:vp_y="0 : 1000 : 0"
       inkscape:vp_x="0 : 526.18109 : 1"
       sodipodi:type="inkscape:persp3d" />
    <filter
       inkscape:collect="always"
       id="filter4019">
      <feGaussianBlur
         inkscape:collect="always"
         stdDeviation="16.971983"
         id="feGaussianBlur4021" />
    </filter>
    <inkscape:perspective
       id="perspective4069"
       inkscape:persp3d-origin="0.5 : 0.33333333 : 1"
       inkscape:vp_z="1 : 0.5 : 1"
       inkscape:vp_y="0 : 1000 : 0"
       inkscape:vp_x="0 : 0.5 : 1"
       sodipodi:type="inkscape:persp3d" />
    <inkscape:perspective
       id="perspective4125"
       inkscape:persp3d-origin="0.5 : 0.33333333 : 1"
       inkscape:vp_z="1 : 0.5 : 1"
       inkscape:vp_y="0 : 1000 : 0"
       inkscape:vp_x="0 : 0.5 : 1"
       sodipodi:type="inkscape:persp3d" />
    <radialGradient
       inkscape:collect="always"
       xlink:href="#linearGradient4005"
       id="radialGradient3055"
       gradientUnits="userSpaceOnUse"
       gradientTransform="matrix(-0.65998392,1.5755789,-1.3897528,-0.58213945,775.76702,1297.8068)"
       cx="353.48813"
       cy="808.51068"
       fx="353.48813"
       fy="808.51068"
       r="267" />
  </defs>
  <sodipodi:namedview
     id="base"
     pagecolor="#ffffff"
     bordercolor="#666666"
     borderopacity="1.0"
     inkscape:pageopacity="1"
     inkscape:pageshadow="2"
     inkscape:zoom="1.1269531"
     inkscape:cx="397.26851"
     inkscape:cy="228.23693"
     inkscape:document-units="px"
     inkscape:current-layer="layer1"
     showgrid="false"
     inkscape:window-width="1232"
     inkscape:window-height="756"
     inkscape:window-x="48"
     inkscape:window-y="0"
     inkscape:window-maximized="1"
     inkscape:snap-page="false"
     inkscape:object-nodes="true">
    <inkscape:grid
       type="xygrid"
       id="grid2935" />
  </sodipodi:namedview>
  <metadata
     id="metadata7">
    <rdf:RDF>
      <cc:Work
         rdf:about="">
        <dc:format>image/svg+xml</dc:format>
        <dc:type
           rdf:resource="http://purl.org/dc/dcmitype/StillImage" />
        <dc:title></dc:title>
      </cc:Work>
    </rdf:RDF>
  </metadata>
  <g
     inkscape:label="Capa 1"
     inkscape:groupmode="layer"
     id="layer1"
     transform="translate(0,-536.36218)"
     style="opacity:1">
    <path
       inkscape:connector-curvature="0"
       style="fill:#000000;fill-opacity:1;fill-rule:evenodd;stroke:none"
       d="m 463.57645,779.32847 c -5.50308,-2.83725 -10.30824,-5.4613 -10.67814,-5.83121 -0.43372,-0.43371 -0.42356,-1.38685 0.0286,-2.68393 0.51658,-1.48187 0.44787,-2.61375 -0.261,-4.29965 -0.52919,-1.25855 -0.96215,-3.35227 -0.96215,-4.65269 0,-2.22531 -0.11239,-2.33796 -1.91002,-1.91486 -1.05049,0.24726 -2.06628,0.47589 -2.25728,0.50808 -0.19099,0.0322 -1.12863,-0.37522 -2.08364,-0.90531 -3.00926,-1.67035 -13.21663,-1.15437 -20.48917,1.03573 -10.85989,3.27042 -11.53992,3.40572 -12.15067,2.41751 -0.30336,-0.49085 -0.7546,-2.16218 -1.00276,-3.71405 -0.24815,-1.55187 -0.7883,-3.22779 -1.20032,-3.72424 -0.90399,-1.08925 -4.22131,-1.16671 -7.52911,-0.17579 -2.13432,0.63937 -16.02552,2.45164 -45.13679,5.88866 -12.80744,1.5121 -13.85507,1.43358 -17.0693,-1.27933 -1.50127,-1.26712 -5.96818,-4.60332 -9.92645,-7.41376 l -7.19687,-5.1099 -3.01125,1.11605 c -2.68774,0.99614 -3.65546,1.01176 -9.00791,0.14531 -5.57645,-0.90272 -6.2394,-0.87852 -9.46065,0.34547 -5.07423,1.92806 -6.53324,3.08237 -9.2356,7.30684 -1.62496,2.54021 -2.6619,5.22623 -3.12305,8.08977 -0.43211,2.68313 -1.24416,4.87637 -2.17063,5.86254 l -1.48022,1.57565 -3.98516,-3.09476 c -2.99983,-2.32959 -4.89101,-3.23795 -7.64888,-3.67391 -3.48326,-0.55064 -4.0446,-0.96004 -11.39682,-8.31226 l -7.73309,-7.7331 1.64292,-3.09694 c 1.2325,-2.32328 2.92371,-3.92149 6.76973,-6.39746 l 5.1268,-3.30051 0,-8.32262 c 0,-7.82334 0.10791,-8.47833 1.79884,-10.91833 2.09805,-3.0275 4.61201,-4.07716 9.76486,-4.07716 2.044,0 3.71636,-0.25896 3.71636,-0.57548 0,-0.3165 0.99206,-2.07319 2.20458,-3.90375 2.60147,-3.9275 5.58076,-5.9328 8.81978,-5.93639 1.98453,-0.002 3.01938,0.70495 6.77202,4.62754 2.43625,2.54657 4.53316,4.49999 4.65982,4.34093 0.12665,-0.15907 1.8285,-3.31227 3.78187,-7.00711 4.86657,-9.20523 10.69114,-18.50741 15.97549,-25.5138 l 4.43292,-5.87749 -1.44497,-2.57097 c -2.43067,-4.32478 -1.58698,-13.19639 2.86141,-30.0888 2.45249,-9.31309 2.52599,-9.04402 -2.96528,-10.85631 -2.58133,-0.85191 -3.12446,-0.82508 -4.99162,0.24652 -1.95629,1.12276 -2.17985,1.12575 -3.37374,0.0453 -1.21951,-1.10365 -1.22316,-1.25154 -0.0791,-3.19905 1.15116,-1.95943 1.14516,-2.08191 -0.1486,-3.03217 -0.74151,-0.54461 -1.79374,-0.99022 -2.33829,-0.99022 -0.70722,0 -0.8517,-0.44646 -0.50571,-1.56274 1.36463,-4.40289 1.32648,-4.56104 -1.37209,-5.68857 -2.30906,-0.96478 -2.53919,-1.28467 -2.15228,-2.99179 1.29551,-5.7162 1.25999,-5.99246 -1.26985,-9.87538 -1.36049,-2.08813 -2.47361,-4.18191 -2.47361,-4.65286 0,-1.16108 3.63418,-3.80654 8.72341,-6.35008 5.09217,-2.54503 5.76261,-3.29348 6.42478,-7.1723 0.5915,-3.46488 1.22049,-3.75034 6.74331,-3.06031 l 3.64996,0.45604 1.50524,4.12828 c 1.02084,2.79976 2.74649,5.46897 5.36234,8.2944 3.79875,4.1031 5.46146,4.9125 6.97738,3.39658 0.78758,-0.78758 2.50891,-0.092 15.83125,6.39713 3.05661,1.48884 5.83933,2.70699 6.18382,2.70699 0.34449,0 3.43851,-2.57022 6.87561,-5.7116 l 6.24926,-5.71159 3.21155,3.58567 3.21156,3.58568 3.25618,-2.02669 3.25616,-2.0267 -1.01619,-2.88019 c -0.55891,-1.58411 -1.01619,-3.15344 -1.01619,-3.48742 0,-1.22156 2.72317,-0.55014 7.38278,1.82028 l 4.77181,2.42749 2.61981,-2.76423 c 1.44091,-1.52033 2.8083,-3.70662 3.03865,-4.85842 0.53153,-2.65764 1.17849,-2.62835 4.68823,0.2122 1.56735,1.26851 3.21543,2.52171 3.6624,2.78487 0.44696,0.26317 3.53358,-0.61842 6.85913,-1.9591 3.88381,-1.56574 7.19688,-2.4376 9.26286,-2.4376 4.63229,0 7.35356,-0.95892 12.52437,-4.41333 3.60641,-2.40929 5.02716,-2.98709 6.71711,-2.73177 1.76816,0.26713 2.47379,-0.0689 4.03151,-1.9202 1.54405,-1.835 2.41915,-2.25774 4.80136,-2.31938 2.83537,-0.0734 3.06465,-0.26521 8.58542,-7.18356 l 5.67223,-7.10821 1.98723,2.47715 1.98723,2.47713 1.98172,-4.14622 1.98172,-4.14623 2.8615,0.30475 c 6.72295,0.71598 7.37585,0.97824 10.46735,4.2045 l 3.07678,3.21088 2.82162,-2.54917 c 1.82655,-1.65017 3.49452,-2.54422 4.72965,-2.53512 1.77563,0.0131 1.55849,0.33834 -3.12986,4.6882 -3.0404,2.82089 -5.47341,5.75403 -6.13637,7.39776 -0.83309,2.06558 -1.24946,2.48509 -1.72335,1.73636 -0.34366,-0.54298 -0.62963,-1.9405 -0.63548,-3.10561 -0.0148,-2.94549 -1.01602,-3.72554 -3.9365,-3.06686 -2.80512,0.63265 -3.20275,1.10108 -7.56678,8.91426 l -3.24666,5.81267 6.1542,6.18621 6.15419,6.18621 0.47269,-2.62248 c 0.26,-1.44236 0.67317,-4.41962 0.91817,-6.61613 0.45242,-4.05602 1.72525,-5.57507 1.74591,-2.08365 0.006,1.05051 0.30264,5.5043 0.65871,9.89731 0.58003,7.15621 1.20734,9.70385 6.02866,24.48405 l 5.38128,16.49675 -1.55895,4.84035 c -0.85742,2.66218 -1.8325,5.0094 -2.16685,5.21604 -1.11282,0.68778 -3.6726,-3.88948 -4.00996,-7.17045 -0.4097,-3.98419 -1.57516,-4.97204 -5.86603,-4.97204 l -3.34,0 0,5.07637 c 0,5.65501 0.0953,5.83452 5.38275,10.14122 2.0055,1.63351 3.64637,3.19341 3.64637,3.46645 0,0.27304 -3.75835,4.96273 -8.3519,10.42155 -4.59355,5.45881 -8.77987,10.75402 -9.30296,11.76712 -1.12187,2.1729 -7.25053,18.17745 -8.11512,21.19211 -0.32921,1.14788 -1.24542,7.10892 -2.03603,13.24675 -1.63888,12.72321 -3.95413,26.62026 -6.95249,41.73155 l -2.06951,10.42995 3.13394,11.32962 c 1.72367,6.23129 3.13394,11.61744 3.13394,11.96922 0,1.25686 -1.87165,0.53021 -11.74195,-4.5587 l 0,0 z"
       id="path2944" />
    <path
       inkscape:connector-curvature="0"
       style="fill:#000000;fill-opacity:1;fill-rule:evenodd;stroke:none"
       d="m 200.62459,786.01896 c -8.9754,-3.86136 -20.84582,-10.10729 -23.1575,-12.18494 -2.66349,-2.39384 -2.96554,-3.49849 -1.83372,-6.70639 l 1.0366,-2.93806 -2.43457,-2.97106 c -2.82013,-3.44162 -2.89302,-3.98349 -1.09882,-8.16918 1.05762,-2.46735 1.78099,-3.21394 3.47427,-3.58585 1.65878,-0.36433 2.65389,-1.35318 4.43577,-4.40783 1.67535,-2.87203 2.75607,-3.99077 3.99213,-4.13257 3.86866,-0.44383 4.78106,-0.98712 6.66448,-3.96831 1.81089,-2.86637 2.21076,-3.12763 4.78879,-3.12877 1.54711,-6.9e-4 3.16582,-0.35414 3.59712,-0.78544 0.58256,-0.58256 2.33739,0.0555 6.82497,2.48198 3.32241,1.7964 6.27517,3.0088 6.56169,2.69421 0.44231,-0.48565 3.47067,-8.18927 3.47067,-8.82879 0,-0.11957 -1.54679,-1.17894 -3.43731,-2.35415 -3.28547,-2.04236 -3.41952,-2.24631 -3.03482,-4.617 0.22137,-1.36413 0.004,-3.90427 -0.48351,-5.64474 -0.81574,-2.91355 -0.77798,-3.24015 0.47621,-4.11862 0.74922,-0.52477 1.79854,-2.2762 2.33182,-3.89207 0.53328,-1.61586 2.07534,-4.012 3.42679,-5.32474 3.52965,-3.42855 12.12182,-9.02364 15.33622,-9.98669 1.51157,-0.45287 2.7483,-1.06416 2.7483,-1.35841 0,-0.73718 -1.89954,-2.57046 -3.61416,-3.4881 -1.25407,-0.67115 -1.37094,-1.19736 -0.98855,-4.45092 0.6332,-5.38745 0.87898,-5.72009 5.14246,-6.95951 2.13827,-0.62161 6.48101,-2.20368 9.65053,-3.51571 3.16951,-1.31202 7.25221,-2.58628 9.07264,-2.83168 2.68051,-0.36134 4.42161,-1.31661 9.1563,-5.02367 8.18909,-6.41168 8.05802,-6.24562 9.42694,-11.94477 1.4934,-6.21746 2.37265,-7.33241 6.13181,-7.7756 12.94174,-1.52579 16.94057,-2.51018 18.87355,-4.64611 1.0597,-1.17095 1.03055,-1.35586 -0.42802,-2.71472 -0.86086,-0.80201 -1.81684,-1.45819 -2.12441,-1.45819 -0.30758,0 -1.50466,-1.30513 -2.66019,-2.9003 l -2.10097,-2.90029 1.77496,-1.85265 c 1.51044,-1.57656 1.70935,-2.26297 1.33469,-4.60592 -0.40936,-2.56002 -0.26557,-2.88651 2.0487,-4.65168 3.79807,-2.89694 4.25925,-4.21688 2.47945,-7.09663 -3.08247,-4.98758 0.41276,-6.06375 5.24061,-1.61358 l 3.09777,2.85543 0.63315,-1.63997 c 3.71741,-9.62911 3.6756,-9.57022 5.17262,-7.28548 1.04815,1.5997 1.03127,1.99403 -0.24404,5.70078 -0.75353,2.19021 -1.37007,4.19635 -1.37007,4.45808 0,0.26174 1.25019,0.85045 2.77819,1.30825 1.528,0.4578 2.7782,0.93792 2.7782,1.06694 0,0.12901 -0.46953,1.35827 -1.04337,2.73168 -1.03887,2.48636 -1.03438,2.50176 1.04183,3.5754 2.37508,1.22821 2.39037,1.26732 1.22454,3.1341 -0.76338,1.22234 -0.49062,1.74809 2.41327,4.65199 l 3.2739,3.2739 1.99136,-1.90783 c 1.71696,-1.64495 2.2482,-1.81017 3.85546,-1.19909 1.02526,0.3898 2.03772,1.16115 2.24991,1.71411 0.21218,0.55296 -0.44052,3.71447 -1.45047,7.02556 -1.84895,6.06182 -3.79406,18.21284 -3.81921,23.85855 -0.008,1.67468 0.34081,4.22768 0.77394,5.67332 0.74857,2.49848 0.66564,2.77721 -1.67725,5.63697 -1.35561,1.65469 -5.64273,8.32182 -9.52692,14.81584 -3.8842,6.49403 -7.52585,12.53123 -8.09256,13.41601 l -1.03035,1.60867 -2.90571,-2.67199 c -4.07284,-3.74526 -6.80461,-4.76971 -10.09222,-3.78473 -3.26531,0.97832 -7.72795,4.75272 -9.49177,8.02792 -1.34217,2.49227 -1.37076,2.5042 -5.99879,2.5042 l -4.65018,0 -3.17918,3.72126 -3.17917,3.72126 0,8.44735 0,8.44733 -4.81757,3.11648 c -4.1364,2.67582 -5.27976,3.89347 -8.08647,8.61188 -3.41605,5.74277 -4.72601,6.78756 -10.68729,8.52382 -2.68498,0.78203 -3.16452,1.21182 -3.56586,3.19606 -0.58466,2.89054 -0.31956,2.67021 -5.94513,4.94078 -4.12481,1.66483 -4.85277,2.22959 -5.52659,4.28752 -0.58676,1.79197 -1.6842,2.88238 -4.49896,4.47006 -3.15672,1.78057 -4.51754,3.28134 -8.94764,9.86783 -2.8736,4.27234 -5.38099,7.76253 -5.57198,7.75598 -0.19101,-0.006 -3.78529,-1.49101 -7.98731,-3.29877 z"
       id="path2946" />
    <path
       inkscape:connector-curvature="0"
       style="fill:#000000;fill-opacity:1;fill-rule:evenodd;stroke:none"
       d="m 439.79905,1007.2324 c -1.71761,-3.5353 -2.91258,-4.0875 -6.65777,-3.0767 -3.99083,1.0771 -5.72475,0.8993 -10.26126,-1.0518 -2.29201,-0.9858 -6.19884,-2.1152 -8.68186,-2.5097 -5.21589,-0.82876 -7.12026,-2.46545 -8.36955,-7.19312 -0.42739,-1.61742 -1.7496,-3.95653 -2.93822,-5.19803 -1.8959,-1.98025 -2.60443,-2.25729 -5.77294,-2.25729 -3.28758,0 -3.81199,-0.22796 -5.84133,-2.53925 -1.2262,-1.39658 -2.52301,-3.38127 -2.88178,-4.41042 -0.42073,-1.20692 -2.73604,-3.3012 -6.52197,-5.89938 -7.30316,-5.01197 -12.44671,-10.3502 -13.4482,-13.95721 -1.25527,-4.52109 -0.97961,-8.83941 0.62836,-9.84361 0.8799,-0.54951 1.38909,-1.6197 1.38909,-2.91954 0,-1.12863 -0.62509,-3.63793 -1.38909,-5.57622 -0.76401,-1.93829 -1.39195,-4.99719 -1.39544,-6.79756 -0.006,-2.91566 -0.49747,-3.9565 -4.50058,-9.52433 -2.47183,-3.43801 -4.50053,-6.46707 -4.50823,-6.73124 -0.008,-0.26418 1.8613,-1.92332 4.15332,-3.68698 2.292,-1.76366 4.16728,-3.48889 4.16728,-3.83384 0,-0.66394 -2.06716,-1.29569 -10.27607,-3.14044 -6.49485,-1.45956 -8.71037,-3.77782 -11.25654,-11.77852 -0.48628,-1.52801 -2.07208,-4.96602 -3.524,-7.64003 -1.45192,-2.67401 -3.18323,-6.82994 -3.84734,-9.23539 -1.0418,-3.77336 -1.08653,-4.84557 -0.32596,-7.81316 l 0.88155,-3.43961 -3.18953,-4.98525 c -3.57986,-5.59536 -3.80997,-7.05134 -1.75197,-11.08534 0.79066,-1.54981 1.33761,-2.88988 1.21546,-2.97794 -0.12215,-0.0881 -1.1795,-0.54032 -2.34966,-1.00505 -1.53687,-0.61035 -2.65318,-1.91664 -4.0207,-4.70494 -1.04121,-2.123 -3.5637,-5.93796 -5.60553,-8.47768 -5.58759,-6.95011 -7.34627,-9.81849 -7.34627,-11.98159 0,-3.39696 -9.0835,-11.08484 -13.3303,-11.28217 -2.29535,-0.10665 -2.29729,-0.10392 -2.64431,3.71329 -0.32073,3.52791 -0.53164,3.91201 -2.75837,5.02328 -3.0467,1.52051 -3.85002,3.50917 -2.34522,5.8058 1.05885,1.616 1.04734,1.78787 -0.18216,2.71865 -0.72186,0.54648 -1.52469,1.00353 -1.78409,1.01569 -0.25939,0.0122 -0.98932,-1.75872 -1.62206,-3.93525 -0.63274,-2.17654 -2.06137,-5.76192 -3.17475,-7.9675 -1.11338,-2.20559 -2.02432,-4.67164 -2.02432,-5.48011 0,-1.32921 0.265,-1.42518 2.76762,-1.00237 2.64346,0.44661 2.94726,0.29764 6.77185,-3.32044 l 4.00422,-3.78802 12.11287,0.6117 12.11286,0.61168 2.13701,-2.07127 c 1.40162,-1.3585 4.64258,-2.95316 9.41813,-4.63403 4.00461,-1.40952 7.62942,-2.90347 8.05513,-3.31987 0.4257,-0.41642 1.14396,-3.51543 1.59613,-6.88671 0.77087,-5.74754 0.73441,-6.26701 -0.5851,-8.33458 -4.09868,-6.42226 -4.31115,-8.4295 -1.25917,-11.89541 1.51456,-1.71996 2.30928,-1.85615 28.64516,-4.90862 14.89806,-1.72676 28.94298,-3.61068 31.21095,-4.18649 4.93532,-1.25301 5.56784,-0.86649 6.83852,4.17885 1.27103,5.04676 1.83975,5.1528 11.34114,2.11466 6.5964,-2.10925 9.65921,-2.70474 15.23006,-2.96113 5.82102,-0.2679 7.12611,-0.13667 7.89872,0.79426 0.50904,0.61336 1.61916,1.1152 2.46692,1.1152 1.84093,0 3.15036,3.54687 3.15036,8.5334 l 0,3.16312 13.37005,6.87801 13.37005,6.87801 0.18158,27.07343 0.18157,27.07344 3.11753,3.05962 c 1.71465,1.6828 3.11754,3.47582 3.11754,3.98451 0,0.50868 -0.6289,2.15761 -1.39755,3.66429 -0.96804,1.89751 -1.98194,2.86187 -3.2991,3.13789 -6.73724,1.41179 -8.36128,1.99968 -10.12452,3.66495 -2.81955,2.6629 -3.68444,4.62986 -6.02168,13.6946 -2.29952,8.91841 -2.60879,14.61588 -1.03542,19.07525 1.83078,5.189 1.18913,5.43664 -2.82211,1.08915 -2.25083,-2.43951 -4.04448,-3.85597 -4.39748,-3.47274 -1.56888,1.70321 -3.54591,8.99118 -3.54591,13.07135 l 0,4.38472 -3.84421,3.05562 c -2.11431,1.68059 -4.0395,3.82273 -4.27821,4.76031 -0.98665,3.87531 4.29392,8.79525 10.72698,9.9944 l 2.25728,0.42078 0,-4.19824 c 0,-3.95212 0.0913,-4.18521 1.55701,-3.97628 1.62508,0.23165 1.96603,0.98667 5.4321,12.02925 1.31082,4.17613 3.42576,13.49542 3.42829,15.10643 4.5e-4,0.2865 -0.79556,0.52091 -1.76892,0.52091 -2.14873,0 -8.88038,4.1854 -10.28081,6.39209 -0.55681,0.87737 -1.22101,2.89308 -1.47601,4.47936 -0.55778,3.46982 -2.19614,5.79582 -7.48352,10.6245 l -3.99365,3.64718 0,8.91402 c 0,9.76538 0.96874,15.64122 3.86861,23.46464 1.02729,2.7715 1.74915,5.1472 1.60414,5.2794 -0.14501,0.1323 -1.27219,0.4565 -2.50486,0.7206 -2.12884,0.4559 -2.31735,0.3233 -3.75984,-2.6459 l 0,0 z"
       id="path2948" />
    <path
       inkscape:connector-curvature="0"
       style="fill:#000000;fill-opacity:1;fill-rule:evenodd;stroke:none"
       d="m 199.58276,839.43025 c -6.019,-1.37176 -7.40397,-2.0143 -12.18962,-5.65514 -4.98273,-3.79078 -7.93186,-4.90533 -10.80177,-4.08225 -4.19778,1.20391 -4.3978,0.49174 -4.42196,-15.74375 -0.0179,-12.03169 0.14562,-14.41946 1.02052,-14.90291 0.573,-0.31663 2.76083,-1.35588 4.86184,-2.30944 2.10101,-0.95356 6.05892,-3.77898 8.79538,-6.27871 l 4.97536,-4.54496 8.74202,3.20114 c 4.80812,1.76064 9.13269,3.05074 9.61016,2.8669 0.47747,-0.18383 2.98848,-3.46022 5.58003,-7.28084 5.28603,-7.79302 6.24758,-8.80353 10.73172,-11.27811 2.34163,-1.29224 3.36049,-2.37361 3.92976,-4.17086 0.68249,-2.15472 1.26961,-2.60483 5.24506,-4.02116 5.34877,-1.90558 6.28895,-2.60303 6.28895,-4.6653 0,-1.95953 0.85882,-2.63623 5.16728,-4.0716 1.88699,-0.62866 4.16087,-1.82877 5.05304,-2.66693 l 1.62213,-1.52392 4.67065,4.50812 c 11.51528,11.11463 12.34342,11.74021 15.56818,11.76014 2.45351,0.0152 3.73555,0.57889 7.10809,3.12548 2.26308,1.70882 4.51816,3.10695 5.01131,3.10695 0.49314,0 1.9571,-0.93111 3.25325,-2.06914 1.89799,-1.66647 2.43575,-2.73726 2.76322,-5.50225 0.46266,-3.90643 2.97094,-9.2006 5.74534,-12.12662 3.23327,-3.40995 5.88865,-4.10053 13.43131,-3.49305 3.66257,0.29499 6.8155,0.51748 7.00651,0.49442 0.191,-0.023 1.34926,-0.22847 2.57392,-0.45647 1.92319,-0.35805 3.20105,0.2305 9.3764,4.31857 3.93237,2.6032 7.75861,5.42043 8.50277,6.2605 1.32187,1.49221 1.32396,1.6026 0.091,4.79343 -2.12954,5.51139 -2.10142,6.05084 0.564,10.81705 2.5563,4.5711 3.08104,7.8081 2.07843,12.82122 -0.39386,1.96925 -0.87963,2.2892 -6.0773,4.00277 -5.8646,1.93344 -9.90928,3.76449 -12.92068,5.84923 -1.59557,1.10458 -2.8077,1.15943 -13.14214,0.5947 l -11.38446,-0.62211 -3.68039,3.48077 c -3.60287,3.40743 -3.77104,3.48075 -7.98366,3.48075 l -4.30328,0 0.44207,3.22518 c 0.24313,1.77385 1.53581,5.77168 2.8726,8.88406 1.3368,3.1124 2.43054,6.0269 2.43054,6.4767 0,0.96776 -2.10298,0.37073 -3.14393,-0.89254 -0.39215,-0.4759 -2.6843,-1.41841 -5.09367,-2.09445 -3.33999,-0.93714 -4.52776,-1.61601 -4.99983,-2.85767 -0.54176,-1.42493 -1.07712,-1.62808 -4.28273,-1.62506 -2.81323,0.003 -4.14301,0.38706 -5.72926,1.65622 -1.71928,1.3756 -2.18531,1.48917 -2.77901,0.67721 -1.06326,-1.45408 -7.78897,0.65445 -10.23848,3.2098 -2.31057,2.41039 -8.14504,3.92398 -10.42413,2.70425 -1.90094,-1.01735 -6.70761,-0.48288 -15.81831,1.75887 -8.39797,2.0664 -10.22542,2.87412 -10.83287,4.78803 -0.24073,0.75845 -1.69217,2.73996 -3.22544,4.40336 -3.1629,3.43134 -3.62088,3.49702 -11.63997,1.66942 l 0,0 z"
       id="path2950" />
    <path
       inkscape:connector-curvature="0"
       style="fill:#000000;fill-opacity:1;fill-rule:evenodd;stroke:none"
       d="m 223.54468,887.41473 c -4.55234,-2.07081 -4.79854,-2.68574 -3.53037,-8.81794 1.56536,-7.56926 1.49255,-7.96907 -2.08448,-11.4478 -1.75117,-1.70304 -3.98027,-4.65918 -4.95356,-6.56918 -0.9733,-1.91001 -2.66599,-4.4994 -3.76155,-5.75419 -1.69846,-1.94534 -1.99191,-2.87108 -1.99191,-6.28377 l 0,-4.00231 3.63572,-2.39809 c 3.21798,-2.12255 4.42879,-3.4611 7.12976,-7.88196 0.4668,-0.76403 3.88147,-1.83283 10.41321,-3.25936 9.11494,-1.9907 9.8353,-2.05365 11.59627,-1.01343 1.725,1.01899 2.25785,1.01361 6.55627,-0.0661 3.14513,-0.79003 5.49085,-1.89596 7.15654,-3.37408 3.58065,-3.17744 4.60882,-3.37778 6.19066,-1.20625 l 1.34761,1.84996 2.83503,-2.56128 c 3.04382,-2.74991 6.42921,-4.07369 6.88916,-2.69384 0.56198,1.68594 2.18745,2.64297 6.07151,3.57474 2.76903,0.66428 4.10261,1.34834 4.33095,2.22153 0.18146,0.69393 1.1521,1.46208 2.15696,1.70701 1.00486,0.24492 2.71044,1.17909 3.79018,2.07594 2.18839,1.81769 4.12756,1.68743 7.81488,-0.52496 2.98966,-1.79381 4.1321,-4.47422 2.78395,-6.53176 -1.13521,-1.73254 -0.82634,-2.42521 1.08143,-2.42521 1.66071,0 3.55745,-2.99118 4.03283,-6.35982 l 0.382,-2.70686 4.26567,4.01242 c 3.67433,3.4562 4.46831,4.66328 5.72743,8.70732 l 1.46176,4.69489 -3.83223,5.69215 c -2.10771,3.13068 -4.16168,6.95636 -4.56438,8.50152 -1.0654,4.08806 -2.12428,5.96937 -4.24716,7.54589 -1.78676,1.32693 -2.02753,1.34214 -4.69004,0.29627 l -2.80658,-1.10246 -3.1627,4.11016 c -1.7395,2.26058 -4.59273,5.20207 -6.34056,6.53664 -2.62015,2.00063 -3.61892,2.37115 -5.69097,2.11121 -1.38219,-0.1734 -7.52949,-0.49767 -13.66065,-0.72058 l -11.14757,-0.40531 -5.34795,3.49116 c -4.96503,3.24122 -5.34794,3.66331 -5.34794,5.89514 0,1.32216 0.32984,2.60781 0.733,2.85697 1.37938,0.8525 0.3102,2.63099 -2.06144,3.42903 -1.99115,0.67001 -2.52014,1.31158 -3.3073,4.01117 -1.33489,4.57803 -3.52641,6.08351 -8.82798,6.06447 -2.59614,-0.01 -5.32729,-0.50655 -7.02546,-1.27903 z"
       id="path2952" />
    <path
       inkscape:connector-curvature="0"
       style="fill:#000000;fill-opacity:1;fill-rule:evenodd;stroke:none"
       d="m 298.23675,935.22948 c -4.49115,-6.37356 -5.60354,-7.39974 -9.75181,-8.996 -3.59951,-1.3851 -6.69225,-3.88305 -9.55467,-7.71712 l -2.54916,-3.41451 -6.64192,0 -6.6419,0 -7.52506,-10.07753 c -4.13876,-5.54264 -7.79377,-10.24362 -8.12221,-10.44661 -0.32846,-0.20299 -1.60718,0.1532 -2.84162,0.79156 l -2.24443,1.16064 -2.23688,-2.66439 -2.23689,-2.66439 2.03001,-2.31205 c 1.1968,-1.36309 2.03,-3.10033 2.03,-4.23261 0,-2.31012 1.13204,-3.58748 3.17933,-3.58748 1.85379,0 2.93356,-1.21977 3.47463,-3.92512 0.28443,-1.42213 0.0715,-2.33836 -0.69044,-2.97068 -1.87249,-1.55404 -1.25335,-2.63518 2.98283,-5.20852 l 4.0845,-2.4812 14.77778,0 14.77777,0 3.63334,-2.8031 c 1.99832,-1.5417 4.49194,-4.04207 5.54137,-5.55638 2.05226,-2.96141 2.46753,-3.14503 4.56918,-2.02027 0.75332,0.40317 2.01753,0.52741 2.80932,0.27611 2.52205,-0.80048 6.72566,-5.14549 7.22912,-7.47233 0.75691,-3.49817 4.50256,-10.70942 7.0291,-13.5327 l 2.30609,-2.57692 2.81593,3.08264 c 1.54876,1.69546 3.91507,5.36788 5.25849,8.16094 1.47502,3.06669 2.86814,5.0783 3.51693,5.0783 0.78602,0 0.95217,0.4194 0.61905,1.56274 -1.47051,5.04711 -1.33493,5.87349 1.87748,11.44284 3.05123,5.28995 3.13122,5.57869 2.775,10.01644 -0.43225,5.38493 0.72379,9.57098 4.67119,16.9145 1.43736,2.67401 3.00503,6.11203 3.48372,7.64003 2.7214,8.68718 4.90046,10.97595 12.31458,12.93455 l 5.91697,1.5631 -1.8405,1.58314 c -3.62563,3.11864 -13.22561,4.82711 -15.01417,2.67202 -0.4974,-0.59933 -2.01215,-1.04182 -3.56637,-1.04182 -2.43227,0 -3.2031,0.50482 -7.72861,5.06164 -3.35101,3.37415 -6.70184,5.93186 -10.05093,7.67189 -3.67147,1.90751 -5.58678,3.42817 -7.11435,5.6484 -1.43548,2.08641 -2.90773,3.30458 -4.69964,3.88858 -1.43513,0.46771 -3.88876,1.72422 -5.45251,2.79224 l -2.84318,1.94185 -4.35646,-6.18242 0,0 z"
       id="path2954" />
    <path
       inkscape:connector-curvature="0"
       style="fill:#000000;fill-opacity:1;fill-rule:evenodd;stroke:none"
       d="m 430.86733,1042.9013 c -2.86502,-2.6492 -5.6719,-4.8275 -6.23751,-4.8405 -0.56562,-0.014 -2.67957,0.6605 -4.69768,1.4969 l -3.66923,1.5208 -2.76306,-2.698 -2.76304,-2.698 -2.00528,1.9212 c -1.87921,1.8003 -2.18476,1.8727 -4.86053,1.1522 l -2.85525,-0.7687 1.60463,-2.5797 c 0.88255,-1.4189 1.82552,-2.9543 2.09549,-3.4121 0.30828,-0.5227 -1.00154,-1.9129 -3.52165,-3.7376 -2.20686,-1.5977 -6.37634,-5.221 -9.2655,-8.0514 l -5.25301,-5.1463 -1.69248,1.3192 c -0.93086,0.7256 -2.73837,1.8559 -4.0167,2.5117 l -2.32423,1.1925 -5.06814,-4.9142 c -4.91862,-4.7694 -5.17144,-4.9143 -8.56968,-4.9143 -4.23907,0 -6.44347,-0.7804 -9.8692,-3.4937 -1.4325,-1.1345 -2.92652,-2.0627 -3.32005,-2.0627 -0.39353,0 -6.43259,3.6478 -13.42013,8.1063 l -12.70461,8.1062 -4.53818,-1.5775 c -10.45447,-3.6344 -25.7219,-9.9233 -25.7219,-10.5955 0,-0.4139 0.81884,-0.5714 1.91002,-0.3673 7.66103,1.4325 13.50986,2.7436 16.36819,3.6691 1.9019,0.6158 4.2052,0.8944 5.33798,0.6457 1.29155,-0.2838 2.58447,-0.05 3.67503,0.6647 1.41401,0.9265 2.59726,1.0001 7.41518,0.4611 5.42813,-0.6074 5.88809,-0.794 8.65782,-3.5122 l 2.92514,-2.8708 -0.84972,-4.1234 c -0.59784,-2.9011 -0.6474,-5.00434 -0.16721,-7.09502 0.92914,-4.04504 0.34805,-9.29694 -1.26814,-11.46166 -0.73442,-0.98368 -3.17367,-3.07737 -5.42052,-4.65262 -5.2564,-3.68521 -7.97453,-8.34368 -7.47211,-12.80603 l 0.34101,-3.02876 -2.00899,0.42976 c -1.82819,0.39106 -2.31411,0.0385 -5.39875,-3.91673 -1.86435,-2.39057 -5.05537,-5.52289 -7.09116,-6.96072 -3.83446,-2.7082 -6.74165,-6.02945 -7.51654,-8.58706 -0.3682,-1.21528 0.14158,-1.85022 2.87122,-3.5762 1.82538,-1.15421 4.25654,-2.31588 5.40254,-2.58148 1.3623,-0.31573 3.05664,-1.7226 4.89423,-4.06383 1.96809,-2.50749 4.11408,-4.23396 7.1589,-5.7594 2.58612,-1.29563 6.41321,-4.1807 9.44362,-7.11912 2.80242,-2.71736 5.36706,-4.94064 5.69918,-4.94064 0.33214,0 0.91575,0.70323 1.2969,1.56274 0.43468,0.98012 1.20814,1.50027 2.07473,1.39519 0.75991,-0.0922 3.74945,-0.36868 6.6434,-0.61452 l 5.26175,-0.447 4.63911,6.86546 c 3.30366,4.88911 4.63809,7.49745 4.63556,9.06086 -0.002,1.20748 0.58387,4.08278 1.30184,6.38957 1.20517,3.87227 1.21988,4.31621 0.19151,5.78442 -0.77582,1.10761 -1.19546,3.62202 -1.38275,8.28476 l -0.26889,6.69451 4.4183,4.48069 c 2.43008,2.46438 6.95858,6.25233 10.06336,8.41767 3.36948,2.34996 5.96692,4.71409 6.44355,5.8648 0.4392,1.0603 2.00375,3.32704 3.47679,5.0372 2.58934,3.00616 2.80974,3.10938 6.63867,3.10938 3.43835,0 4.1725,0.24649 5.56949,1.8699 0.885,1.02843 1.82171,3.12842 2.0816,4.66667 0.73177,4.33122 3.66835,6.46451 11.02393,8.00811 4.20793,0.883 7.38534,2.0708 10.37394,3.8779 l 4.30813,2.605 2.53773,-2.01 c 1.39576,-1.1054 2.98065,-1.8399 3.52198,-1.6322 0.54134,0.2078 1.68206,1.8139 2.53489,3.5694 l 1.55064,3.1917 4.38799,-0.4496 4.388,-0.4496 3.92923,5.905 c 2.16107,3.2477 4.11064,6.3777 4.33236,6.9554 0.29608,0.7716 1.4789,1.0507 4.45359,1.0507 l 4.05041,0 0.44044,2.9518 c 0.24222,1.6235 0.33951,4.3293 0.21619,6.0128 l -0.22424,3.0609 -5.90366,1.5713 c -4.76292,1.2675 -16.94421,5.3645 -22.22554,7.4753 -0.67418,0.2694 -2.88003,-1.2835 -6.25093,-4.4004 l 0,0 z"
       id="path2956" />
    <path
       sodipodi:nodetypes="sssssssscsssssssssscccsssssscs"
       inkscape:connector-curvature="0"
       style="fill:#000000;fill-opacity:1;fill-rule:evenodd;stroke:none"
       d="m 230.8269,1004.9488 c -6.08242,-3.3485 -6.74265,-4.0327 -8.12589,-8.42086 -1.02646,-3.25625 -2.32673,-4.94305 -9.20494,-11.94121 -4.4053,-4.48211 -9.72865,-9.25124 -11.82965,-10.59803 -4.30951,-2.76251 -6.65522,-5.12901 -9.27262,-9.3548 -1.43558,-2.31775 -2.26133,-2.95071 -4.07743,-3.12546 -1.99371,-0.19185 -2.30387,-0.4933 -2.49078,-2.42085 -0.28886,-2.97885 2.76523,-8.94308 4.86786,-9.50627 0.87811,-0.23521 2.69048,-0.4367 4.02748,-0.44777 2.89611,-0.024 3.49318,-0.40192 4.86243,-3.07792 0.92466,-1.80711 1.5983,-2.13091 5.96334,-2.8664 2.70649,-0.45603 5.53599,-1.15833 6.28776,-1.56066 0.75177,-0.40234 1.68067,-0.51892 2.06423,-0.25907 1.34826,0.91339 3.04779,3.92293 3.04779,5.39708 0,0.81955 1.40645,4.24643 3.12546,7.61531 2.53578,4.96956 3.12547,6.81685 3.12547,9.79098 0,2.91841 0.27499,3.81293 1.34879,4.38761 0.80947,0.43322 1.57878,1.88481 1.92396,3.63028 0.4985,2.52076 0.88031,2.9875 2.86451,3.50166 l 2.28933,0.59322 -0.47331,3.78824 -0.4733,3.78824 2.43603,0 c 1.61158,0 4.37517,1.09049 8.16555,3.22203 5.57881,3.13732 44.43337,16.21635 43.01798,17.30575 -0.20317,0.1565 -20.0341,-7.72904 -39.63335,-11.95806 -0.59379,-0.12813 -0.80528,1.10496 -1.28305,1.82371 -0.9716,1.46163 -2.11186,3.32391 -3.18627,5.23393 -2.14877,3.81992 -4.12212,7.16902 -4.38514,7.44222 -0.26302,0.2731 -2.50503,-0.6191 -4.98224,-1.9829 z"
       id="path2958" />
    <path
       inkscape:connector-curvature="0"
       style="fill:#000000;fill-opacity:1;fill-rule:evenodd;stroke:none"
       d="m 188.47,945.95282 c 0,-0.20741 0.50726,-1.92801 1.12725,-3.82352 0.98916,-3.0242 3.11742,-5.63392 5.15273,-6.31839 0.35962,-0.12094 -0.0181,-2.28562 -0.83926,-4.81042 l -1.49313,-4.59051 1.84622,-2.42053 c 1.01541,-1.33129 1.84622,-2.77796 1.84622,-3.21484 0,-1.73927 4.50646,-14.74856 7.35595,-21.23519 l 3.02252,-6.88057 -2.05483,-2.79416 c -1.13017,-1.53678 -1.98073,-2.86525 -1.89014,-2.95216 0.29446,-0.28247 12.22899,-5.149 12.62726,-5.149 0.21263,0 0.38659,0.92547 0.38659,2.05658 0,2.12437 1.96485,4.53715 4.29783,5.27761 0.96584,0.30655 0.22085,0.93963 -3.07427,2.6125 -4.94968,2.51284 -6.6383,4.89772 -8.60051,12.14671 -1.09097,4.03041 -1.09953,4.56666 -0.0999,6.26362 0.60129,1.0207 1.3203,3.41856 1.59778,5.32857 0.2775,1.91 0.95398,4.61385 1.50332,6.00855 0.79752,2.02479 0.84917,3.34519 0.25634,6.55213 -0.40836,2.20898 -0.74246,5.45915 -0.74246,7.22259 0,1.76345 -0.37505,3.58133 -0.83346,4.03973 -0.51253,0.51254 -3.0234,0.83346 -6.52091,0.83346 l -5.68745,0 -0.46289,2.46742 c -0.25459,1.35708 -0.83633,2.58072 -1.29276,2.7192 -1.69602,0.51455 -7.42807,1.02435 -7.42807,0.66062 z"
       id="path2960" />
    <path
       inkscape:connector-curvature="0"
       style="fill:#000000;fill-opacity:1;fill-rule:evenodd;stroke:none"
       d="m 186.03908,914.73021 c -4.62469,-2.80598 -6.92854,-3.79308 -8.85549,-3.79418 -3.70102,-0.002 -3.2296,-1.17234 0.69455,-1.72409 1.81451,-0.25512 4.70556,-1.14397 6.42457,-1.97518 2.61652,-1.26521 3.0908,-1.79407 2.91255,-3.24769 -0.71282,-5.81301 -0.75162,-5.72622 3.93767,-8.80805 2.43061,-1.59741 5.1745,-3.61385 6.09751,-4.48099 l 1.67822,-1.57659 2.03683,2.05007 2.03683,2.05007 -2.04075,4.16728 c -1.12242,2.29201 -3.32417,7.99599 -4.89277,12.67551 -1.56861,4.67951 -3.06054,8.49659 -3.3154,8.48237 -0.25486,-0.0142 -3.2763,-1.73255 -6.71432,-3.81853 z"
       id="path2962" />
    <path
       inkscape:connector-curvature="0"
       style="fill:#000000;fill-opacity:1;fill-rule:evenodd;stroke:none"
       d="m 168.52612,946.1953 c -7.6841,-5.45035 -14.67904,-10.81201 -15.54431,-11.91479 l -1.57322,-2.00506 2.78195,-2.5095 c 1.53007,-1.38023 6.27899,-5.71312 10.55318,-9.62863 6.09934,-5.58753 8.20221,-7.11912 9.77456,-7.11912 2.1332,0 6.99545,2.34052 13.48107,6.48932 l 3.97392,2.54208 -1.18189,1.8038 c -1.04485,1.59463 -1.08186,2.28808 -0.31922,5.98042 0.80298,3.88767 0.7693,4.24203 -0.48686,5.12188 -1.75312,1.22793 -3.16042,4.83042 -5.02883,12.87309 -0.83244,3.58326 -1.72632,6.91131 -1.98639,7.39564 -0.32798,0.61079 -4.75381,-2.15587 -14.44396,-9.02913 l 0,0 z"
       id="path2964" />
    <path
       inkscape:connector-curvature="0"
       style="fill:#000000;fill-opacity:1;fill-rule:evenodd;stroke:none"
       d="m 145.84941,929.08921 c -2.17839,-2.23087 -2.71128,-3.36408 -3.16933,-6.73949 -0.30287,-2.23173 -0.83604,-4.15282 -1.18483,-4.26908 -0.34881,-0.11627 -2.16439,-1.22475 -4.03462,-2.46328 -2.4329,-1.61116 -3.65284,-2.99228 -4.28754,-4.85401 -0.4879,-1.43117 -1.68521,-3.64851 -2.66067,-4.9274 -2.13758,-2.80252 -2.18368,-3.34026 -0.38277,-4.46495 1.00394,-0.62697 1.34202,-1.49451 1.21546,-3.1189 -0.1727,-2.21649 -0.13356,-2.24774 2.60285,-2.07814 2.26315,0.14026 3.48639,-0.32713 6.59821,-2.52112 2.54778,-1.79632 3.77415,-3.12589 3.68232,-3.9922 -0.0757,-0.7144 -0.35587,-5.12873 -0.62254,-9.80963 l -0.48486,-8.51074 4.78984,1.99819 c 2.6344,1.099 5.63368,2.39336 6.66505,2.87634 1.76298,0.8256 2.08968,0.68535 5.45787,-2.34294 4.00145,-3.59765 4.90088,-3.83627 6.90514,-1.83201 1.92572,1.92571 1.77439,4.9523 -0.34727,6.94549 -1.16774,1.09702 -1.73637,2.37737 -1.73637,3.90961 0,2.02295 0.25307,2.32456 2.25729,2.69028 1.2415,0.22655 4.4451,0.0623 7.11911,-0.36499 2.67401,-0.42729 7.28408,-0.95119 10.24459,-1.16422 l 5.38274,-0.38732 0,-5.01799 c 0,-2.75989 0.19773,-6.90967 0.43939,-9.2217 0.43024,-4.11627 0.39772,-4.22472 -1.56274,-5.21353 -1.10116,-0.55539 -2.85329,-1.21381 -3.89362,-1.46315 -1.68601,-0.40408 -2.04595,-0.15058 -3.31321,2.33345 -0.78194,1.53274 -1.53019,2.78679 -1.66278,2.78679 -0.13259,0 -2.17185,-3.9012 -4.53169,-8.66932 -2.80506,-5.66773 -4.43535,-9.89139 -4.70865,-12.19895 l -0.41803,-3.52964 -4.31034,0.46159 -4.31033,0.46161 -0.44186,-2.67453 c -0.7728,-4.67769 -0.69073,-4.82181 3.88378,-6.82033 3.14647,-1.37464 5.72688,-1.94897 9.37784,-2.08723 l 5.03692,-0.19076 5.38131,3.75619 c 5.32941,3.71997 9.30965,5.29942 15.55545,6.17277 l 3.22865,0.45146 0.24408,5.37228 c 0.22282,4.90436 0.44079,5.59633 2.50265,7.94465 1.24222,1.41479 3.0068,4.04542 3.92131,5.84582 0.91451,1.80041 2.94549,4.72789 4.51327,6.50551 2.14692,2.43426 2.85053,3.81587 2.85053,5.59728 0,3.17748 -1.14203,4.45871 -4.83603,5.42543 -4.27073,1.11766 -12.73424,5.47242 -17.73678,9.12617 -2.29201,1.67402 -5.78414,4.06948 -7.76029,5.32323 -5.12159,3.24934 -5.36784,3.6638 -4.0503,6.8171 1.02168,2.44524 1.01843,2.71703 -0.0418,3.49228 -1.34473,0.98329 -7.11831,2.31209 -10.04596,2.31209 -1.65173,0 -2.28681,0.4909 -3.36956,2.60455 -1.65077,3.22251 -10.18035,12.05204 -15.54632,16.09302 -2.20174,1.65807 -4.18905,3.75527 -4.41622,4.66043 -0.22718,0.90514 -0.62829,1.64573 -0.89136,1.64573 -0.26305,0 -1.65671,-1.20681 -3.097,-2.68179 z"
       id="path2966" />
    <path
       inkscape:connector-curvature="0"
       style="fill:#000000;fill-opacity:1;fill-rule:evenodd;stroke:none"
       d="m 123.35123,895.48085 c -4.21578,-5.79376 -7.18551,-10.73055 -7.28054,-12.10296 -0.0482,-0.69689 0.11268,-2.05105 0.35765,-3.00923 0.60834,-2.37948 0.21798,-2.80302 -5.74775,-6.23611 C 98.436595,867.08649 90.31264,861.44104 80.909176,853.444 l -2.336764,-1.98727 8.882995,-5.50228 c 6.158187,-3.81448 9.302795,-6.21379 10.251563,-7.82182 0.752709,-1.27575 2.53415,-3.05534 3.95875,-3.95466 1.54256,-0.97377 2.7832,-2.40412 3.06739,-3.53643 0.6306,-2.51251 2.48079,-4.78865 5.91424,-7.27583 1.5463,-1.12013 2.81144,-2.47921 2.81144,-3.02019 0,-1.06666 2.85617,-2.18366 7.36322,-2.87963 l 2.84865,-0.43989 0.40029,-15.38142 c 0.39987,-15.36523 0.39852,-15.38449 -1.28592,-18.2833 -2.04605,-3.52114 -2.08168,-4.13037 -0.29744,-5.08526 1.2099,-0.64752 1.53956,-0.42702 2.55955,1.71193 1.47547,3.09409 2.74234,3.09864 6.77,0.0242 2.94464,-2.24769 3.5541,-2.43092 8.08615,-2.43092 5.82702,0 7.15282,0.5976 8.91159,4.01688 0.73027,1.41974 2.27205,3.47827 3.42618,4.57452 1.76755,1.67889 1.99662,2.261 1.45272,3.69159 -0.89281,2.34826 -0.73986,9.7839 0.26165,12.72075 0.88587,2.59775 0.31411,2.365 11.56657,4.70863 3.10472,0.64664 3.34462,1.58296 3.43142,13.39289 l 0.0692,9.41966 -5.03547,2.08449 c -4.96978,2.05729 -5.03775,2.12016 -5.20933,4.81857 -0.55817,8.7777 -2.02515,11.2563 -8.64866,14.6127 -1.83265,0.92866 -3.33208,1.97542 -3.33208,2.32612 0,0.3507 -0.2969,1.41854 -0.65978,2.37299 l -0.65978,1.73534 -2.69846,-1.30375 c -3.14104,-1.51757 -9.13028,-2.3996 -10.40885,-1.53288 -0.69088,0.46833 -0.72751,1.69627 -0.16824,5.63966 0.91293,6.43703 1.40378,7.28122 4.83046,8.30788 l 2.81916,0.84464 0,4.37084 c 0,2.40397 0.35158,6.12147 0.78128,8.26114 1.00074,4.98305 0.51152,6.7272 -2.44662,8.7226 -1.95145,1.31634 -2.66254,1.47267 -3.8377,0.84375 -1.00475,-0.53772 -1.8476,-0.55513 -2.77767,-0.0574 -1.89023,1.01162 -4.22115,4.14749 -4.22115,5.67888 0,2.18201 -1.22369,1.46254 -3.99853,-2.35096 z"
       id="path2969" />
    <path
       inkscape:connector-curvature="0"
       style="fill:#000000;fill-opacity:1;fill-rule:evenodd;stroke:none"
       d="m 73.816971,847.28436 c -0.926093,-1.00946 -4.198994,-3.47083 -7.273115,-5.4697 -5.057419,-3.28846 -8.276189,-6.14645 -11.896235,-10.5628 -0.696993,-0.85031 -2.673719,-2.47024 -4.392729,-3.59984 -1.719,-1.1296 -5.327319,-4.64556 -8.018483,-7.81324 -4.175453,-4.91478 -6.110736,-6.49889 -13.196417,-10.80174 -4.56686,-2.77327 -9.866127,-6.42056 -11.776129,-8.10507 l -3.472742,-3.06276 1.726137,-3.32456 c 1.006245,-1.93803 2.599401,-3.77889 3.820014,-4.41393 1.151633,-0.59916 3.282751,-2.29227 4.735818,-3.76248 l 2.641952,-2.67311 2.567167,1.81465 c 1.411936,0.99807 3.66108,2.73496 4.998085,3.85978 l 2.430909,2.04511 -1.200903,2.14336 -1.200893,2.14336 3.086119,1.32288 c 6.125517,2.62569 8.469448,3.06915 11.470271,2.17008 3.036237,-0.90968 3.183599,-1.21057 1.934992,-3.95098 -0.749229,-1.64436 -0.663232,-1.99639 0.771486,-3.15816 1.414941,-1.14574 2.786669,-1.29943 11.0878,-1.24225 5.210198,0.0359 12.442288,0.28173 16.0713,0.54631 l 6.598203,0.48107 8.1551,-5.58179 c 7.376332,-5.04876 8.118582,-5.74759 7.772712,-7.31816 -0.95328,-4.32885 -1.10615,-10.21483 -0.35275,-13.58142 0.64916,-2.90075 1.4519,-4.25528 3.80989,-6.42881 5.01501,-4.62266 5.54445,-4.73743 8.95647,-1.94154 1.62681,1.33305 3.81115,2.74815 4.85409,3.14467 1.04294,0.39653 2.2559,1.5103 2.69548,2.47505 0.70641,1.55042 0.53747,2.0798 -1.45486,4.55899 -4.10217,5.1046 -4.13591,9.22176 -0.14107,17.21571 l 1.96581,3.93375 -0.32208,13.0287 -0.32208,13.02868 -1.83374,0.41102 c -5.94149,1.33172 -7.1544,1.83703 -7.82181,3.25863 -0.39445,0.8402 -2.10927,2.56064 -3.81071,3.8232 -1.70143,1.26255 -3.94331,3.82715 -4.98195,5.6991 -1.03865,1.87196 -2.636101,3.80661 -3.549903,4.29922 -0.913811,0.49262 -2.44811,2.14741 -3.409567,3.6773 -0.961448,1.52989 -2.401524,3.25045 -3.200159,3.82345 -2.093089,1.50174 -15.963045,9.69555 -16.437842,9.71082 -0.219911,0.007 -1.157546,-0.81308 -2.083638,-1.82255 l 0,0 z"
       id="path2971" />
    <path
       inkscape:connector-curvature="0"
       style="fill:#000000;fill-opacity:1;fill-rule:evenodd;stroke:none"
       d="m 159.29897,803.06674 c -2.16589,-0.73861 -2.52913,-1.23086 -3.33185,-4.51503 -0.85138,-3.48325 -0.80259,-3.90089 0.88699,-7.5914 l 1.78793,-3.90536 -3.47786,-3.04234 c -2.49531,-2.18284 -3.82512,-4.03374 -4.70701,-6.55148 l -1.22914,-3.50913 -7.95718,0.48456 c -7.00506,0.42659 -8.19569,0.68528 -9.9506,2.16192 -2.56219,2.15596 -3.01481,2.11337 -4.31776,-0.40628 -1.23119,-2.38083 -1.58008,-2.45779 -4.88416,-1.07726 -2.38251,0.99547 -2.4086,0.98716 -2.4086,-0.76793 0,-2.1682 1.99286,-4.60643 7.77285,-9.50995 5.02663,-4.26439 7.83315,-9.14695 8.60584,-14.97168 0.44184,-3.33085 0.79533,-3.90553 3.92314,-6.37792 3.7948,-2.99961 3.74209,-2.98699 8.17464,-1.95698 1.71901,0.39944 8.97631,0.9554 16.12733,1.23544 7.15102,0.28004 13.24569,0.7611 13.54369,1.06904 0.64421,0.66565 -1.92707,2.53595 -4.94219,3.59485 -1.71132,0.601 -2.23335,1.25393 -2.54742,3.18621 -0.21728,1.33666 -1.10553,3.42808 -1.97389,4.64758 l -1.57886,2.2173 2.43567,2.696 c 3.76682,4.16941 4.08707,5.07403 2.84697,8.04202 -1.0286,2.46177 -1.00299,2.67803 0.60497,5.10781 0.98244,1.48457 3.2328,3.36322 5.42417,4.52825 2.05984,1.09508 5.25184,2.9347 7.09334,4.08805 l 3.34818,2.097 -3.88576,3.92672 c -2.13716,2.15971 -5.67539,4.8137 -7.86275,5.89775 -4.92154,2.43915 -8.29072,5.5305 -8.86192,8.13112 -0.39491,1.79801 -0.69881,1.97493 -3.33119,1.9393 -1.59316,-0.0216 -3.99056,-0.41223 -5.32757,-0.86818 z"
       id="path2973" />
    <path
       inkscape:connector-curvature="0"
       style="fill:#000000;fill-opacity:1;fill-rule:evenodd;stroke:none"
       d="m 123.90145,760.9578 c -1.06429,-1.98866 -0.90442,-2.82888 1.0844,-5.69874 l 1.80338,-2.60228 -2.51507,-4.07471 c -2.45451,-3.97664 -2.50394,-4.19431 -2.05338,-9.0422 0.3702,-3.9832 0.2376,-5.30946 -0.66919,-6.69341 -0.83417,-1.27309 -1.01626,-2.56219 -0.69402,-4.91315 0.3716,-2.71116 0.20116,-3.43811 -1.14119,-4.86696 l -1.57805,-1.67975 2.21306,-1.86216 c 1.21717,-1.02419 2.05805,-2.26606 1.86862,-2.75971 -0.25821,-0.67288 0.29725,-0.80181 2.21902,-0.5151 4.13271,0.61657 5.9318,1.75719 6.63266,4.20507 0.55894,1.95218 0.95197,2.25729 2.90775,2.25729 2.00929,0 2.32722,0.27114 2.85135,2.43169 l 0.5899,2.4317 4.0874,-2.77897 c 4.59889,-3.12673 6.20913,-3.33989 13.48647,-1.78526 2.55843,0.54654 6.78394,1.36756 9.39003,1.82448 3.3158,0.58136 5.76084,1.53412 8.14419,3.17358 1.87322,1.28854 3.55024,2.3428 3.72672,2.3428 0.17647,0 1.33022,-1.40551 2.56388,-3.12335 l 2.24303,-3.12335 3.18288,1.82824 c 4.09592,2.35269 6.30835,4.3754 6.30835,5.76741 0,0.60873 -0.763,2.22965 -1.69555,3.60202 -1.36311,2.00599 -2.25882,2.57076 -4.56847,2.88056 -1.58011,0.21194 -3.43429,0.89336 -4.12039,1.51428 -1.14926,1.04006 -1.63353,1.04113 -6.15131,0.0136 -3.79447,-0.86303 -5.50339,-0.94887 -7.55412,-0.37941 -3.81533,1.05947 -7.32635,0.92263 -15.87317,-0.61865 l -7.55459,-1.36234 -3.75539,2.89726 c -4.4842,3.45953 -5.37248,4.76531 -5.9678,8.77273 -0.82356,5.5437 -5.5516,13.28024 -8.11597,13.28024 -0.31705,0 -0.9,-0.60455 -1.29544,-1.34344 l 0,0 z"
       id="path2975" />
    <path
       inkscape:connector-curvature="0"
       style="fill:#000000;fill-opacity:1;fill-rule:evenodd;stroke:none"
       d="m 206.52825,731.76354 c -4.99316,-3.04328 -6.04939,-3.27758 -8.02819,-1.78088 -2.06835,1.5644 -2.96127,1.29848 -6.02261,-1.79362 -3.88849,-3.92753 -13.72051,-8.46984 -13.73458,-6.34524 -0.002,0.28651 -0.71873,1.41478 -1.59298,2.5073 l -1.58953,1.98638 -2.48337,-1.68526 c -1.49626,-1.0154 -4.52105,-2.03598 -7.60979,-2.5676 -2.81953,-0.48529 -6.66774,-1.32402 -8.55158,-1.86386 -4.947,-1.41761 -11.6955,-1.26753 -14.83439,0.32992 -2.19025,1.11466 -2.71125,1.16677 -3.47246,0.34727 -0.49255,-0.53028 -1.51886,-0.96415 -2.2807,-0.96415 -0.84581,0 -1.94154,-0.94305 -2.81415,-2.42203 -1.00164,-1.69763 -2.18906,-2.62609 -3.97024,-3.10435 -1.39766,-0.37528 -4.38154,-1.18195 -6.63086,-1.79259 l -4.08967,-1.11025 0.41359,-4.42912 c 0.6253,-6.69614 2.80456,-9.10855 7.07119,-7.82769 3.273,0.98256 12.66498,0.86706 13.91594,-0.17115 0.90393,-0.75019 1.76914,-0.56967 5.25498,1.09641 3.2288,1.54322 4.43924,1.82572 5.35013,1.24863 0.85956,-0.54458 1.90797,-0.48873 3.8852,0.20697 1.48938,0.52405 4.40277,0.99188 6.4742,1.03963 3.47538,0.0801 3.97495,-0.11698 6.46893,-2.55229 1.48649,-1.45152 3.17491,-4.02499 3.75206,-5.71883 0.67029,-1.96718 2.15105,-4.04944 4.09903,-5.76413 1.67731,-1.47642 3.44248,-3.63277 3.9226,-4.79189 0.48012,-1.15911 1.15427,-2.10748 1.49812,-2.10748 0.34385,0 0.98119,-0.78137 1.41632,-1.73637 0.68563,-1.5048 1.24052,-1.73636 4.1606,-1.73636 l 3.36947,0 -0.42946,-2.68564 c -0.5668,-3.54458 0.54734,-5.46178 4.11545,-7.08183 2.74642,-1.24698 7.41035,-1.82893 7.41035,-0.92465 0,0.23136 -0.48952,2.3098 -1.08783,4.61877 -0.89285,3.44559 -0.92397,4.30613 -0.17363,4.80071 0.50281,0.33143 2.57237,1.56756 4.599,2.74695 2.20883,1.28541 4.42292,3.2975 5.5275,5.02321 1.01348,1.58338 1.93776,3.01303 2.05393,3.17699 0.17598,0.24834 1.45883,-0.31601 5.82226,-2.5613 0.48099,-0.2475 6.18808,7.12924 6.16096,7.9634 -0.01,0.30289 -1.51652,1.56666 -3.34814,2.80836 -6.46276,4.38126 -8.98004,6.98587 -10.1469,10.49897 -0.7518,2.26344 -1.67713,3.61776 -2.83106,4.14353 -2.00822,0.91501 -2.01548,0.97558 -0.7154,5.96692 0.70571,2.70944 0.80763,4.50144 0.34727,6.1066 -0.9068,3.16183 -1.02402,2.92494 2.81036,5.67966 3.23693,2.32551 3.41024,2.60058 2.6667,4.23245 -0.43736,0.95991 -0.97945,1.74435 -1.20464,1.7432 -0.22517,-9.7e-4 -2.44097,-1.24031 -4.92399,-2.75367 z"
       id="path2977" />
  </g>
</svg>
